<?xml version="1.0" encoding="UTF-8" standalone="no"?>
<!DOCTYPE svg PUBLIC "-//W3C//DTD SVG 1.1//EN" "http://www.w3.org/Graphics/SVG/1.1/DTD/svg11.dtd">
<svg width="100%" height="100%" viewBox="0 0 171 189" version="1.1" xmlns="http://www.w3.org/2000/svg" xmlns:xlink="http://www.w3.org/1999/xlink" xml:space="preserve" xmlns:serif="http://www.serif.com/" style="fill-rule:evenodd;clip-rule:evenodd;stroke-linejoin:round;stroke-miterlimit:2;">
    <g transform="matrix(1,0,0,1,-6,-263.951)">
        <g transform="matrix(0.418155,0,0,0.418155,-159.603,152.961)">
            <path d="M712.379,534.113L796.255,582.515C797.042,710.486 797.925,710.638 797,712.607C796.83,712.97 796.434,713.18 796.039,713.142C793.718,712.913 794.025,712.064 600.109,601.979C535.489,639.999 470.897,678.067 406.277,716.087C403.009,718.01 399.268,715.452 399.231,712.153C399.096,700.013 399.202,687.868 398.907,675.731C396.824,589.949 396.174,589.974 396.036,582.514C396.024,581.859 395.947,577.677 399.809,575.245C415.399,565.427 430.802,555.3 446.654,545.91C462.426,536.567 462.945,536.491 635.812,436.699L600.109,413.953L404.156,518.468C404.041,518.34 403.993,518.233 403.959,518.243C403.939,518.249 403.849,518.242 403.849,518.208C403.767,512.27 403.745,506.331 403.63,500.393C401.629,396.97 400.171,396.979 400.842,388.011C400.94,386.715 401.893,385.768 402.258,385.541C412.832,378.983 423.443,372.486 434.026,365.943C571.216,281.124 570.969,280.714 595.174,266.8C600.134,263.948 604.38,266.367 605.068,266.758C618.593,274.461 726.668,336.407 728.03,337.223C733.939,340.758 794.93,377.254 800.979,382.89C803.393,385.139 803.302,388.079 803.287,388.569C802.407,417.188 800.339,479.824 800.123,485.713C800.111,486.025 799.849,487.312 798.859,488.169C793.681,492.648 792.86,491.356 712.379,534.113L792.507,483.573L788.936,392.77L600.109,286.773L407.323,390.484L404.311,517.675L596.336,398.452C599.624,396.403 602.908,397.485 604.078,398.114C622.966,408.266 641.841,418.445 660.692,428.666C667.499,432.357 667.844,442.124 660.987,446.127C651.998,451.374 642.959,456.535 633.946,461.739C611.516,474.689 589.198,487.833 566.657,500.588C515.273,529.664 463.56,558.155 412.176,587.231L408.781,704.226C594.897,598.831 594.54,597.948 599.196,596.424C600.112,596.124 600.867,596.428 601.001,596.482L795.358,710.648L796.213,582.515L712.379,534.113ZM432.048,662.539C432.49,655.012 431.318,603.587 431.208,598.761C431.2,598.402 431.158,598.141 431.403,597.829C431.449,597.77 519.965,542.771 520.109,542.682C577.53,507.398 635.174,472.476 692.629,437.248L600.109,381.84L432.146,469.465C514.168,417.57 514.031,417.374 596.178,365.683C599.555,363.558 602.959,364.609 604.262,365.299C621.64,374.493 639.177,383.396 656.344,392.979C661.381,395.791 713.019,424.616 718.62,429.349C719.241,429.873 723.105,433.139 722.06,438.9C721.938,439.573 721.22,443.524 717.125,445.877C699.158,456.198 681.355,466.817 663.148,476.711C618.927,500.741 574.265,523.95 529.861,547.64C497.62,564.839 465.455,582.178 433.214,599.378L432.942,661.979L596.193,559.654C600.219,557.127 603.689,558.946 604.261,559.246C620.307,567.657 636.437,575.91 652.33,584.606C662.893,590.387 673.186,596.648 683.614,602.668L757.694,645.438L757.694,604.753C653.905,539.134 651.507,540.322 651.003,535.011C650.959,534.547 650.666,531.469 653.61,529.807C690.534,508.971 727.49,488.19 764.414,467.354L765.003,406.588L600.109,309.463L432.146,404.817C599.464,306.654 599.435,306.531 600.005,306.452C600.215,306.422 600.432,306.442 600.634,306.507C600.676,306.521 769.906,402.405 770.02,402.494C771.175,403.403 771.186,404.609 771.187,404.817C771.232,410.032 771.738,469.326 771.654,470.005C771.627,470.217 771.476,471.427 770.373,472.353C766.078,475.958 765.48,475.298 666.302,533.864C701.902,552.594 737.554,571.225 773.147,589.969C778.446,592.76 778.446,597.941 778.446,598.762C778.446,663.09 778.659,663.111 778.288,665.212C777.248,671.111 772.399,672.876 771.619,673.16C770.96,673.4 767.105,674.803 762.882,672.396C755.031,667.92 747.229,663.359 739.403,658.84C719.139,647.141 698.706,635.727 678.61,623.742C652.272,608.033 626.448,591.472 600.109,575.763C552.219,601.011 504.19,625.993 456.3,651.241C439.266,660.221 440.756,664.361 432.402,664.113C432.124,664.104 431.641,663.754 431.926,663.449C431.964,663.408 431.997,663.215 432.024,662.883L431.751,662.726L432.048,662.539Z" style="fill:url(#_Linear1);"/>
        </g>
    </g>
    <defs>
        <linearGradient id="_Linear1" x1="0" y1="0" x2="1" y2="0" gradientUnits="userSpaceOnUse" gradientTransform="matrix(392.207,0,0,436.805,404.006,493.751)"><stop offset="0" style="stop-color:rgb(51,0,202);stop-opacity:1"/><stop offset="1" style="stop-color:rgb(255,0,96);stop-opacity:1"/></linearGradient>
    </defs>
</svg>
