<?xml version="1.0" encoding="UTF-8" standalone="no"?>
<!DOCTYPE svg PUBLIC "-//W3C//DTD SVG 1.1//EN" "http://www.w3.org/Graphics/SVG/1.1/DTD/svg11.dtd">
<svg width="100%" height="100%" viewBox="0 0 35 39" version="1.1" xmlns="http://www.w3.org/2000/svg" xmlns:xlink="http://www.w3.org/1999/xlink" xml:space="preserve" xmlns:serif="http://www.serif.com/" style="fill-rule:evenodd;clip-rule:evenodd;stroke-linejoin:round;stroke-miterlimit:2;">
    <g transform="matrix(0.0892386,0,0,0.0892386,-36.0529,-24.5716)">
        <path d="M712.379,534.113L796.213,582.515L796.213,712.153L600.109,598.933L404.006,712.153L404.006,582.514L655.799,437.141L600.109,404.987L404.006,518.208L404.006,388.569L600.109,275.348L796.213,388.569L796.213,485.713L712.379,534.113ZM432.146,469.465L432.146,404.817L600.109,307.844L768.07,404.817L768.07,469.465L656.096,534.113L768.07,598.762L768.07,663.41L600.109,566.438L432.146,663.41L432.146,598.761L712.082,437.141L600.109,372.492L432.146,469.465Z" style="fill:url(#_Linear1);"/>
    </g>
    <defs>
        <linearGradient id="_Linear1" x1="0" y1="0" x2="1" y2="0" gradientUnits="userSpaceOnUse" gradientTransform="matrix(392.207,-218.402,218.402,392.207,404.006,712.153)"><stop offset="0" style="stop-color:rgb(255,202,202);stop-opacity:1"/><stop offset="0.49" style="stop-color:rgb(100,1,0);stop-opacity:1"/><stop offset="1" style="stop-color:rgb(251,26,96);stop-opacity:1"/></linearGradient>
    </defs>
</svg>
