<?xml version="1.0" encoding="UTF-8" standalone="no"?>
<!DOCTYPE svg PUBLIC "-//W3C//DTD SVG 1.1//EN" "http://www.w3.org/Graphics/SVG/1.1/DTD/svg11.dtd">
<svg width="100%" height="100%" viewBox="0 0 1339 1339" version="1.1" xmlns="http://www.w3.org/2000/svg" xmlns:xlink="http://www.w3.org/1999/xlink" xml:space="preserve" xmlns:serif="http://www.serif.com/" style="fill-rule:evenodd;clip-rule:evenodd;stroke-linejoin:round;stroke-miterlimit:2;">
    <g transform="matrix(1,0,0,1,-702,-1391)">
        <g>
            <rect x="702" y="1391" width="1339" height="1339" style="fill:rgb(0,0,0);fill-opacity:0;"/>
            <g transform="matrix(3.06544,0,0,3.06544,-468.1,546.937)">
                <path d="M712.379,534.113L796.213,582.515L796.213,712.153L600.109,598.933L404.006,712.153L404.006,582.514L655.799,437.141L600.109,404.987L404.006,518.208L404.006,388.569L600.109,275.348L796.213,388.569L796.213,485.713L712.379,534.113ZM432.146,469.465L432.146,404.817L600.109,307.844L768.07,404.817L768.07,469.465L656.096,534.113L768.07,598.762L768.07,663.41L600.109,566.438L432.146,663.41L432.146,598.761L712.082,437.141L600.109,372.492L432.146,469.465Z" style="fill:rgb(207,19,68);"/>
            </g>
        </g>
    </g>
</svg>
